# xmcd
#
# Track frame offsets: 
#        150
#        25950
#        48000
#        64275
#        82500
#        94650
#        114225
#        132300
#        152400
#        169350
#        185400
#        203475
#
# Disc length: 2885 seconds
#
# Revision: 0
# Processed by: cddbd v1.5.2PL0 Copyright (c) Steve Scherf et al.
# Submitted via: ExactAudioCopy v0.95b3
#
DISCID=8b0b430c
DTITLE=Toni Dodd and Southbound Blues - God Loves The Blues
DYEAR=2005
DGENRE=Blues
TTITLE0=God Loves The Blues
TTITLE1=Fly High Daddy
TTITLE2=Two Bit Texas Town
TTITLE3=Ol' Number Seven
TTITLE4=Baby I'm Back
TTITLE5=Back In The USA
TTITLE6=I'll Do A Good Job
TTITLE7=Statesboro Blues
TTITLE8=It's Rainin'
TTITLE9=Just Can't Help Myself
TTITLE10=See The Light
TTITLE11=Wait A Minute
EXTD=
EXTT0=
EXTT1=
EXTT2=
EXTT3=
EXTT4=
EXTT5=
EXTT6=
EXTT7=
EXTT8=
EXTT9=
EXTT10=
EXTT11=
PLAYORDER=
